<svg xmlns="http://www.w3.org/2000/svg" viewBox="0 0 100 100">
    <g transform="translate(0, 100) scale(0.1, -0.1)" fill="#ffffff">
        <path d="M381 944 c-30 -8 -76 -26 -103 -41 -101 -55 -233 -223 -199 -255 11 -11 15 -10 25 6 83 138 144 198 246 238 78 31 222 31 300 0 112 -45 197 -130 242 -242 31 -78 31 -222 0 -300 -45 -112 -130 -197 -242 -242 -78 -31 -222 -31 -300 0 -102 40 -163 100 -246 238 -10 15 -15 16 -25 7 -32 -32 100 -202 199 -256 277 -151 622 18 674 331 39 231 -114 463 -343 517 -79 18 -157 18 -228 -1z"/>

        <path d="M504 669 c-3 -6 23 -41 62 -80 l68 -69 -294 -2 c-254 -3 -295 -5 -295 -18 0 -13 41 -15 295 -18 l294 -2 -69 -70 c-55 -55 -67 -72 -57 -82 10 -10 32 7 105 80 l92 92 -90 90 c-49 49 -93 90 -97 90 -4 0 -10 -5 -14 -11z"/>
    </g>
</svg>
